HIERARCHY
ROOT mixamorig:Hips
{
	OFFSET 0.000000 103.991501 0.000000
	CHANNELS 6 Xposition Yposition Zposition Xrotation Yrotation Zrotation
	JOINT mixamorig:Spine
	{
		OFFSET 0.000000 10.181602 0.131500
		CHANNELS 6 Xposition Yposition Zposition Xrotation Yrotation Zrotation
		JOINT mixamorig:Spine1
		{
			OFFSET 0.000000 10.083504 -1.000800
			CHANNELS 6 Xposition Yposition Zposition Xrotation Yrotation Zrotation
			JOINT mixamorig:Spine2
			{
				OFFSET 0.000000 9.100006 -1.373400
				CHANNELS 6 Xposition Yposition Zposition Xrotation Yrotation Zrotation
				JOINT mixamorig:Neck
				{
					OFFSET 0.000000 16.671707 -2.516200
					CHANNELS 6 Xposition Yposition Zposition Xrotation Yrotation Zrotation
					JOINT mixamorig:Head
					{
						OFFSET 0.000000 9.617905 1.685000
						CHANNELS 6 Xposition Yposition Zposition Xrotation Yrotation Zrotation
						JOINT mixamorig:HeadTop_End
						{
							OFFSET 0.000000 17.815201 2.585000
							CHANNELS 6 Xposition Yposition Zposition Xrotation Yrotation Zrotation
							End Site
							{
								OFFSET 0.000000 13.794495 0.000000
							}
						}
						JOINT mixamorig:LeftEye
						{
							OFFSET 3.067600 6.409500 9.283600
							CHANNELS 6 Xposition Yposition Zposition Xrotation Yrotation Zrotation
							End Site
							{
								OFFSET 0.000000 13.794495 0.000000
							}
						}
						JOINT mixamorig:RightEye
						{
							OFFSET -3.067600 6.409500 9.283500
							CHANNELS 6 Xposition Yposition Zposition Xrotation Yrotation Zrotation
							End Site
							{
								OFFSET 0.000000 13.794495 0.000000
							}
						}
					}
				}
				JOINT mixamorig:LeftShoulder
				{
					OFFSET 4.570400 10.945999 -2.628000
					CHANNELS 6 Xposition Yposition Zposition Xrotation Yrotation Zrotation
					JOINT mixamorig:LeftArm
					{
						OFFSET 10.592400 -0.524597 -2.232100
						CHANNELS 6 Xposition Yposition Zposition Xrotation Yrotation Zrotation
						JOINT mixamorig:LeftForeArm
						{
							OFFSET 27.841499 0.000000 0.000000
							CHANNELS 6 Xposition Yposition Zposition Xrotation Yrotation Zrotation
							JOINT mixamorig:LeftHand
							{
								OFFSET 28.328800 0.000000 0.000000
								CHANNELS 6 Xposition Yposition Zposition Xrotation Yrotation Zrotation
								JOINT mixamorig:LeftHandThumb1
								{
									OFFSET 2.466103 -1.576218 2.681689
									CHANNELS 6 Xposition Yposition Zposition Xrotation Yrotation Zrotation
									JOINT mixamorig:LeftHandThumb2
									{
										OFFSET 3.229782 -1.864716 1.864716
										CHANNELS 6 Xposition Yposition Zposition Xrotation Yrotation Zrotation
										JOINT mixamorig:LeftHandThumb3
										{
											OFFSET 2.652611 -1.531494 1.531488
											CHANNELS 6 Xposition Yposition Zposition Xrotation Yrotation Zrotation
											JOINT mixamorig:LeftHandThumb4
											{
												OFFSET 1.954605 -1.128494 1.128493
												CHANNELS 6 Xposition Yposition Zposition Xrotation Yrotation Zrotation
												End Site
												{
													OFFSET -0.000404 2.523392 0.000683
												}
											}
										}
									}
								}
								JOINT mixamorig:LeftHandIndex1
								{
									OFFSET 9.109299 -0.518112 2.259867
									CHANNELS 6 Xposition Yposition Zposition Xrotation Yrotation Zrotation
									JOINT mixamorig:LeftHandIndex2
									{
										OFFSET 3.676399 0.000000 0.000000
										CHANNELS 6 Xposition Yposition Zposition Xrotation Yrotation Zrotation
										JOINT mixamorig:LeftHandIndex3
										{
											OFFSET 2.883102 0.000000 0.000000
											CHANNELS 6 Xposition Yposition Zposition Xrotation Yrotation Zrotation
											JOINT mixamorig:LeftHandIndex4
											{
												OFFSET 2.392700 0.000000 0.000000
												CHANNELS 6 Xposition Yposition Zposition Xrotation Yrotation Zrotation
												End Site
												{
													OFFSET 0.000000 2.392700 0.001080
												}
											}
										}
									}
								}
								JOINT mixamorig:LeftHandMiddle1
								{
									OFFSET 9.533401 0.000000 0.000000
									CHANNELS 6 Xposition Yposition Zposition Xrotation Yrotation Zrotation
									JOINT mixamorig:LeftHandMiddle2
									{
										OFFSET 3.698196 0.000000 0.000000
										CHANNELS 6 Xposition Yposition Zposition Xrotation Yrotation Zrotation
										JOINT mixamorig:LeftHandMiddle3
										{
											OFFSET 2.950897 0.000000 0.000000
											CHANNELS 6 Xposition Yposition Zposition Xrotation Yrotation Zrotation
											JOINT mixamorig:LeftHandMiddle4
											{
												OFFSET 2.833900 0.000000 0.000000
												CHANNELS 6 Xposition Yposition Zposition Xrotation Yrotation Zrotation
												End Site
												{
													OFFSET 0.000000 2.833893 0.001278
												}
											}
										}
									}
								}
								JOINT mixamorig:LeftHandRing1
								{
									OFFSET 9.104500 -0.043060 -1.865119
									CHANNELS 6 Xposition Yposition Zposition Xrotation Yrotation Zrotation
									JOINT mixamorig:LeftHandRing2
									{
										OFFSET 3.153999 0.000000 0.000000
										CHANNELS 6 Xposition Yposition Zposition Xrotation Yrotation Zrotation
										JOINT mixamorig:LeftHandRing3
										{
											OFFSET 2.937698 0.000000 0.000000
											CHANNELS 6 Xposition Yposition Zposition Xrotation Yrotation Zrotation
											JOINT mixamorig:LeftHandRing4
											{
												OFFSET 2.647499 0.000000 0.000000
												CHANNELS 6 Xposition Yposition Zposition Xrotation Yrotation Zrotation
												End Site
												{
													OFFSET 0.000000 2.647507 0.001195
												}
											}
										}
									}
								}
								JOINT mixamorig:LeftHandPinky1
								{
									OFFSET 8.077797 -0.486984 -3.806321
									CHANNELS 6 Xposition Yposition Zposition Xrotation Yrotation Zrotation
									JOINT mixamorig:LeftHandPinky2
									{
										OFFSET 3.599998 0.000000 0.000000
										CHANNELS 6 Xposition Yposition Zposition Xrotation Yrotation Zrotation
										JOINT mixamorig:LeftHandPinky3
										{
											OFFSET 2.114197 0.000000 0.000000
											CHANNELS 6 Xposition Yposition Zposition Xrotation Yrotation Zrotation
											JOINT mixamorig:LeftHandPinky4
											{
												OFFSET 1.975700 0.000000 0.000000
												CHANNELS 6 Xposition Yposition Zposition Xrotation Yrotation Zrotation
												End Site
												{
													OFFSET 0.000000 1.975693 0.000892
												}
											}
										}
									}
								}
							}
						}
					}
				}
				JOINT mixamorig:RightShoulder
				{
					OFFSET -4.570000 10.946198 -2.628000
					CHANNELS 6 Xposition Yposition Zposition Xrotation Yrotation Zrotation
					JOINT mixamorig:RightArm
					{
						OFFSET -10.592800 -0.524796 -2.232100
						CHANNELS 6 Xposition Yposition Zposition Xrotation Yrotation Zrotation
						JOINT mixamorig:RightForeArm
						{
							OFFSET -27.841499 0.000000 0.000000
							CHANNELS 6 Xposition Yposition Zposition Xrotation Yrotation Zrotation
							JOINT mixamorig:RightHand
							{
								OFFSET -28.328800 0.000000 0.000000
								CHANNELS 6 Xposition Yposition Zposition Xrotation Yrotation Zrotation
								JOINT mixamorig:RightHandPinky1
								{
									OFFSET -8.076698 -0.486725 -3.806227
									CHANNELS 6 Xposition Yposition Zposition Xrotation Yrotation Zrotation
									JOINT mixamorig:RightHandPinky2
									{
										OFFSET -3.599998 0.000000 0.000000
										CHANNELS 6 Xposition Yposition Zposition Xrotation Yrotation Zrotation
										JOINT mixamorig:RightHandPinky3
										{
											OFFSET -2.114197 0.000000 0.000000
											CHANNELS 6 Xposition Yposition Zposition Xrotation Yrotation Zrotation
											JOINT mixamorig:RightHandPinky4
											{
												OFFSET -1.975700 0.000000 0.000000
												CHANNELS 6 Xposition Yposition Zposition Xrotation Yrotation Zrotation
												End Site
												{
													OFFSET 0.000000 1.975693 0.000919
												}
											}
										}
									}
								}
								JOINT mixamorig:RightHandRing1
								{
									OFFSET -9.103600 -0.043030 -1.865120
									CHANNELS 6 Xposition Yposition Zposition Xrotation Yrotation Zrotation
									JOINT mixamorig:RightHandRing2
									{
										OFFSET -3.153999 0.000000 0.000000
										CHANNELS 6 Xposition Yposition Zposition Xrotation Yrotation Zrotation
										JOINT mixamorig:RightHandRing3
										{
											OFFSET -2.937698 0.000000 0.000000
											CHANNELS 6 Xposition Yposition Zposition Xrotation Yrotation Zrotation
											JOINT mixamorig:RightHandRing4
											{
												OFFSET -2.647499 0.000000 0.000000
												CHANNELS 6 Xposition Yposition Zposition Xrotation Yrotation Zrotation
												End Site
												{
													OFFSET 0.000000 2.647507 0.001231
												}
											}
										}
									}
								}
								JOINT mixamorig:RightHandMiddle1
								{
									OFFSET -9.532501 0.000000 0.000000
									CHANNELS 6 Xposition Yposition Zposition Xrotation Yrotation Zrotation
									JOINT mixamorig:RightHandMiddle2
									{
										OFFSET -3.698196 0.000000 0.000000
										CHANNELS 6 Xposition Yposition Zposition Xrotation Yrotation Zrotation
										JOINT mixamorig:RightHandMiddle3
										{
											OFFSET -2.950897 0.000000 0.000000
											CHANNELS 6 Xposition Yposition Zposition Xrotation Yrotation Zrotation
											JOINT mixamorig:RightHandMiddle4
											{
												OFFSET -2.833900 0.000000 0.000000
												CHANNELS 6 Xposition Yposition Zposition Xrotation Yrotation Zrotation
												End Site
												{
													OFFSET 0.000000 2.833893 0.001318
												}
											}
										}
									}
								}
								JOINT mixamorig:RightHandIndex1
								{
									OFFSET -9.108299 -0.517853 2.259859
									CHANNELS 6 Xposition Yposition Zposition Xrotation Yrotation Zrotation
									JOINT mixamorig:RightHandIndex2
									{
										OFFSET -3.676399 0.000000 0.000000
										CHANNELS 6 Xposition Yposition Zposition Xrotation Yrotation Zrotation
										JOINT mixamorig:RightHandIndex3
										{
											OFFSET -2.883102 0.000000 0.000000
											CHANNELS 6 Xposition Yposition Zposition Xrotation Yrotation Zrotation
											JOINT mixamorig:RightHandIndex4
											{
												OFFSET -2.392700 0.000000 0.000000
												CHANNELS 6 Xposition Yposition Zposition Xrotation Yrotation Zrotation
												End Site
												{
													OFFSET 0.000000 2.392700 0.001113
												}
											}
										}
									}
								}
								JOINT mixamorig:RightHandThumb1
								{
									OFFSET -2.464798 -1.573944 2.681868
									CHANNELS 6 Xposition Yposition Zposition Xrotation Yrotation Zrotation
									JOINT mixamorig:RightHandThumb2
									{
										OFFSET -3.229782 -1.864716 1.864716
										CHANNELS 6 Xposition Yposition Zposition Xrotation Yrotation Zrotation
										JOINT mixamorig:RightHandThumb3
										{
											OFFSET -2.652542 -1.531448 1.531448
											CHANNELS 6 Xposition Yposition Zposition Xrotation Yrotation Zrotation
											JOINT mixamorig:RightHandThumb4
											{
												OFFSET -1.954605 -1.128494 1.128493
												CHANNELS 6 Xposition Yposition Zposition Xrotation Yrotation Zrotation
												End Site
												{
													OFFSET 0.000412 2.523392 0.000704
												}
											}
										}
									}
								}
							}
						}
					}
				}
			}
		}
	}
	JOINT mixamorig:LeftUpLeg
	{
		OFFSET 8.207800 -6.751701 -1.599600
		CHANNELS 6 Xposition Yposition Zposition Xrotation Yrotation Zrotation
		JOINT mixamorig:LeftLeg
		{
			OFFSET 0.000000 -44.370499 0.284600
			CHANNELS 6 Xposition Yposition Zposition Xrotation Yrotation Zrotation
			JOINT mixamorig:LeftFoot
			{
				OFFSET 0.000000 -44.427898 -2.982200
				CHANNELS 6 Xposition Yposition Zposition Xrotation Yrotation Zrotation
				JOINT mixamorig:LeftToeBase
				{
					OFFSET 0.000000 -8.728700 10.710600
					CHANNELS 6 Xposition Yposition Zposition Xrotation Yrotation Zrotation
					JOINT mixamorig:LeftToe_End
					{
						OFFSET 0.000000 -0.000700 9.278099
						CHANNELS 6 Xposition Yposition Zposition Xrotation Yrotation Zrotation
						End Site
						{
							OFFSET 0.000000 9.278100 0.000000
						}
					}
				}
			}
		}
	}
	JOINT mixamorig:RightUpLeg
	{
		OFFSET -8.207800 -6.751701 -1.599600
		CHANNELS 6 Xposition Yposition Zposition Xrotation Yrotation Zrotation
		JOINT mixamorig:RightLeg
		{
			OFFSET 0.000000 -44.370499 0.286200
			CHANNELS 6 Xposition Yposition Zposition Xrotation Yrotation Zrotation
			JOINT mixamorig:RightFoot
			{
				OFFSET 0.000000 -44.427700 -2.983800
				CHANNELS 6 Xposition Yposition Zposition Xrotation Yrotation Zrotation
				JOINT mixamorig:RightToeBase
				{
					OFFSET 0.000000 -8.728700 10.710600
					CHANNELS 6 Xposition Yposition Zposition Xrotation Yrotation Zrotation
					JOINT mixamorig:RightToe_End
					{
						OFFSET 0.000000 -0.000700 9.278100
						CHANNELS 6 Xposition Yposition Zposition Xrotation Yrotation Zrotation
						End Site
						{
							OFFSET 0.000000 9.278100 0.000000
						}
					}
				}
			}
		}
	}
}
MOTION
Frames: 3
Frame Time: 0.016667
-0.527533 88.081238 2.160259 13.826373 -22.422113 -10.970521 -0.000001 10.181604 0.131501 5.237969 2.712107 2.831666 -0.000001 10.083508 -1.000794 10.567113 5.980065 2.498738 -0.000001 9.100023 -1.373402 10.567105 5.980064 2.498735 -0.000000 16.671707 -2.516189 -3.905550 -2.134378 -3.950053 -0.000001 9.617899 1.684989 -29.653495 12.686487 6.644905 0.000001 17.815216 2.585001 0.000001 0.000000 -0.000000 3.067600 6.409515 9.283595 0.000001 0.000000 -0.000000 -3.067599 6.409531 9.283501 0.000001 0.000000 -0.000000 4.570400 10.945990 -2.627981 0.344371 2.030830 4.441741 10.592406 -0.524591 -2.232096 2.894285 4.672391 -60.214572 27.841513 -0.000001 0.000003 0.011158 -58.806843 0.143719 28.328793 0.000015 -0.000001 62.847624 -15.778442 2.463367 2.466106 -1.576212 2.681692 -1.979894 -11.507335 -0.411194 3.229792 -1.864715 1.864707 0.239107 2.576871 2.039397 2.652612 -1.531496 1.531485 0.000012 -0.000003 -0.000003 1.954593 -1.128480 1.128490 0.000001 0.000000 0.000002 9.109301 -0.518100 2.259867 5.661341 -2.854366 0.073371 3.676395 -0.000018 -0.000000 0.329760 1.124827 -43.979161 2.883084 -0.000005 -0.000000 0.000002 0.000000 0.000001 2.392697 -0.000004 0.000004 0.000003 0.000000 0.000001 9.533400 0.000007 0.000001 0.828257 4.748512 -11.532540 3.698192 0.000003 0.000008 -1.733441 -3.133295 -50.864794 2.950897 -0.000014 0.000002 -0.000000 -0.000001 -0.000003 2.833893 -0.000001 0.000006 0.000000 -0.000001 -0.000003 9.104502 -0.043067 -1.865117 -17.817056 18.648804 -17.460405 3.154002 -0.000001 -0.000005 -1.970989 -4.440823 -53.495934 2.937706 -0.000003 -0.000003 -0.000002 0.000000 -0.000000 2.647499 -0.000015 0.000003 -0.000001 0.000001 -0.000000 8.077792 -0.486974 -3.806317 0.824256 25.353512 -32.630781 3.599977 -0.000006 -0.000001 -2.609721 -8.141883 -52.243799 2.114195 -0.000011 0.000002 -0.000001 0.000000 -0.000002 1.975698 0.000001 0.000000 -0.000001 -0.000000 -0.000002 -4.570002 10.946207 -2.627981 0.817222 10.759172 -11.612771 -10.592801 -0.524808 -2.232092 -25.352414 6.118677 77.583402 -27.841492 -0.000005 0.000001 -0.033758 108.463561 0.053737 -28.328796 0.000000 -0.000009 38.748295 -2.580727 -18.858227 -8.076706 -0.486701 -3.806221 -8.540160 3.460562 31.445395 -3.599994 0.000003 0.000014 -2.207809 9.105772 38.961513 -2.114194 -0.000006 -0.000002 -0.000004 0.000001 0.000002 -1.975705 0.000003 0.000001 0.000002 0.000001 0.000002 -9.103602 -0.043032 -1.865119 -12.412126 -5.437271 26.327453 -3.154006 -0.000017 -0.000012 -1.291350 4.270263 37.763180 -2.937699 -0.000019 -0.000003 -0.000000 -0.000001 0.000000 -2.647494 -0.000001 -0.000013 0.000001 -0.000001 0.000001 -9.532514 -0.000007 0.000006 -5.488305 -1.728152 19.845436 -3.698208 0.000006 0.000006 -0.840523 1.786132 40.098019 -2.950901 -0.000041 0.000011 -0.000002 -0.000003 -0.000002 -2.833891 -0.000014 0.000001 0.000001 -0.000001 -0.000001 -9.108309 -0.517839 2.259868 -5.877713 -3.330496 2.913223 -3.676389 -0.000008 -0.000005 0.532323 -1.828225 38.598956 -2.883104 -0.000027 0.000007 -0.000001 -0.000002 -0.000002 -2.392691 -0.000014 -0.000004 0.000001 -0.000000 -0.000001 -2.464812 -1.573932 2.681878 14.833369 10.195108 -2.365191 -3.229789 -1.864693 1.864719 -1.202674 -0.203479 -2.193537 -2.652534 -1.531434 1.531457 -0.000011 0.000011 0.000003 -1.954608 -1.128496 1.128493 0.000002 0.000001 -0.000002 8.207799 -6.751703 -1.599595 -51.872947 -6.171731 25.745478 0.000000 -44.370499 0.284600 135.893526 -2.826297 -3.182136 -0.000003 -44.427895 -2.982198 8.143229 -9.016436 -7.696796 0.000001 -8.728698 10.710601 -1.467879 -0.030077 0.065863 -0.000001 -0.000698 9.278097 -0.000001 0.000000 -0.000000 -8.207800 -6.751693 -1.599597 -28.065150 -1.857859 17.671661 0.000000 -44.370499 0.286201 63.754632 0.449469 2.177684 0.000000 -44.427700 -2.983808 -17.408959 7.841932 -3.643540 -0.000000 -8.728703 10.710597 -28.202766 0.204022 -1.010451 -0.000000 -0.000700 9.278100 0.000000 -0.000000 -0.000000 
-0.747395 87.585152 8.440783 12.777616 -19.982200 -12.099888 -0.000001 10.181603 0.131500 4.944598 2.741285 3.660440 0.000003 10.083506 -1.000795 10.061831 6.253922 2.556674 -0.000000 9.100018 -1.373405 10.061823 6.253928 2.556679 0.000001 16.671703 -2.516208 -4.202452 -3.734905 -2.858330 0.000003 9.617891 1.685008 -27.991807 11.877190 5.884923 0.000000 17.815216 2.584999 0.000000 0.000000 0.000000 3.067600 6.409485 9.283599 0.000000 0.000000 0.000000 -3.067600 6.409515 9.283500 0.000000 0.000000 0.000000 4.570401 10.945997 -2.628008 0.357990 3.323340 3.940581 10.592403 -0.524619 -2.232092 7.699242 2.432526 -59.985064 27.841501 0.000004 0.000006 -0.014481 -56.230232 0.120566 28.328808 0.000015 0.000003 59.829520 -12.874227 2.270913 2.466099 -1.576223 2.681685 -3.452358 -9.143147 -1.634193 3.229781 -1.864706 1.864716 0.238068 2.574226 2.039334 2.652620 -1.531495 1.531487 0.000012 -0.000002 -0.000001 1.954582 -1.128492 1.128486 0.000000 0.000000 0.000000 9.109289 -0.518117 2.259861 5.630927 -2.854693 -0.039631 3.676379 -0.000003 -0.000001 0.329164 1.124337 -43.931473 2.883092 -0.000020 -0.000004 0.000001 0.000000 0.000001 2.392689 -0.000005 0.000001 0.000001 0.000000 0.000001 9.533392 0.000008 -0.000005 0.823012 4.717776 -11.644195 3.698181 -0.000006 0.000001 -1.727769 -3.128617 -50.774370 2.950891 0.000002 -0.000003 -0.000001 0.000000 -0.000004 2.833890 0.000002 0.000001 -0.000002 0.000000 -0.000002 9.104506 -0.043071 -1.865124 -17.734081 18.580801 -17.526981 3.153996 0.000003 -0.000004 -1.961013 -4.433501 -53.350205 2.937705 -0.000015 0.000001 -0.000001 0.000000 -0.000002 2.647500 -0.000015 0.000001 0.000002 -0.000001 -0.000000 8.077787 -0.486976 -3.806327 0.775557 25.260526 -32.561120 3.599975 -0.000023 0.000005 -2.602054 -8.138958 -52.120702 2.114204 -0.000002 0.000004 0.000001 0.000001 -0.000003 1.975698 0.000014 -0.000001 -0.000000 -0.000001 0.000001 -4.569999 10.946185 -2.628009 0.229119 9.512676 -9.350543 -10.592802 -0.524779 -2.232095 -28.058385 6.277184 72.843824 -27.841516 0.000002 -0.000003 -0.062040 106.295680 0.075342 -28.328798 0.000010 -0.000002 41.079520 -2.583268 -18.701196 -8.076702 -0.486728 -3.806238 -8.494907 3.436658 31.362367 -3.599982 -0.000006 -0.000002 -2.208023 9.106073 38.963579 -2.114195 -0.000016 0.000008 0.000003 0.000001 -0.000001 -1.975711 0.000013 0.000008 -0.000003 -0.000002 0.000001 -9.103582 -0.043037 -1.865126 -12.343680 -5.417935 26.323083 -3.153993 0.000011 0.000001 -1.288205 4.266222 37.715946 -2.937699 0.000013 0.000008 0.000002 -0.000000 0.000000 -2.647490 0.000010 0.000002 -0.000004 0.000000 -0.000001 -9.532495 -0.000009 -0.000009 -5.459664 -1.731692 19.845371 -3.698192 -0.000015 -0.000009 -0.837488 1.782554 40.022245 -2.950893 -0.000012 -0.000001 0.000000 -0.000003 -0.000002 -2.833896 -0.000012 0.000001 0.000000 -0.000001 -0.000002 -9.108302 -0.517855 2.259856 -5.841880 -3.344058 3.001983 -3.676381 0.000002 0.000001 0.531676 -1.827513 38.573111 -2.883104 0.000001 0.000004 -0.000004 -0.000003 -0.000002 -2.392699 -0.000002 0.000006 -0.000001 -0.000001 -0.000001 -2.464800 -1.573959 2.681863 14.803171 10.217104 -2.257786 -3.229783 -1.864668 1.864722 -1.199150 -0.202470 -2.189531 -2.652537 -1.531448 1.531450 -0.000013 0.000010 0.000004 -1.954604 -1.128493 1.128496 0.000002 0.000002 -0.000000 8.207795 -6.751703 -1.599602 -55.033553 -7.624839 26.061958 0.000001 -44.370502 0.284596 136.078036 -4.364580 -3.123889 0.000000 -44.427898 -2.982192 -0.381450 -14.265871 1.834072 0.000000 -8.728700 10.710606 3.591287 3.404599 0.252194 0.000000 -0.000700 9.278096 0.000000 0.000000 -0.000000 -8.207799 -6.751702 -1.599600 -21.409015 -3.471094 16.726358 0.000000 -44.370502 0.286205 59.530679 -0.219723 1.875909 -0.000001 -44.427700 -2.983797 -14.861764 9.183716 -3.609043 0.000000 -8.728702 10.710599 -37.020452 1.266815 -4.163884 0.000000 -0.000700 9.278098 -0.000000 0.000001 0.000000 
-0.902632 87.106087 15.042289 11.804730 -17.519517 -12.911092 -0.000000 10.181585 0.131499 4.578639 2.775786 4.228354 0.000000 10.083489 -1.000799 9.386350 6.420951 2.632056 0.000000 9.100012 -1.373398 9.386364 6.420943 2.632053 0.000001 16.671694 -2.516197 -4.176856 -5.213234 -1.817859 -0.000001 9.617912 1.684995 -26.312675 10.986523 5.122896 -0.000001 17.815201 2.585004 0.000000 0.000000 0.000000 3.067600 6.409500 9.283603 0.000000 0.000000 0.000000 -3.067600 6.409500 9.283499 0.000000 0.000000 0.000000 4.570402 10.945995 -2.627995 0.329444 4.407517 3.723567 10.592403 -0.524592 -2.232098 12.927891 0.044511 -58.959429 27.841501 0.000008 -0.000005 -0.031939 -55.500283 0.106542 28.328787 -0.000006 -0.000004 55.433078 -9.712164 2.856536 2.466110 -1.576222 2.681692 -4.377315 -7.649363 -2.230436 3.229790 -1.864702 1.864712 0.240210 2.577999 2.039748 2.652606 -1.531483 1.531495 0.000011 -0.000003 -0.000004 1.954592 -1.128479 1.128497 -0.000001 0.000001 0.000002 9.109310 -0.518112 2.259870 5.604891 -2.848262 -0.055459 3.676392 -0.000005 -0.000007 0.327564 1.123066 -43.808594 2.883102 -0.000000 -0.000003 -0.000000 -0.000000 0.000000 2.392699 -0.000001 0.000004 -0.000000 -0.000000 0.000000 9.533412 0.000004 0.000005 0.813877 4.695690 -11.681580 3.698188 -0.000005 0.000009 -1.717572 -3.120230 -50.612327 2.950900 -0.000001 -0.000001 0.000001 -0.000000 -0.000001 2.833895 -0.000019 0.000003 0.000001 -0.000000 -0.000001 9.104526 -0.043062 -1.865120 -17.668697 18.500184 -17.517895 3.153985 -0.000007 0.000004 -1.946173 -4.422504 -53.132810 2.937700 -0.000017 -0.000007 0.000002 0.000000 -0.000001 2.647485 -0.000015 0.000008 -0.000001 0.000000 -0.000000 8.077808 -0.486976 -3.806319 0.714096 25.173263 -32.415002 3.599984 -0.000005 -0.000003 -2.591372 -8.137107 -51.922572 2.114184 0.000000 0.000005 0.000001 0.000003 -0.000001 1.975698 -0.000014 0.000004 -0.000001 0.000001 -0.000002 -4.570002 10.946198 -2.627996 -0.179205 8.153089 -7.613538 -10.592803 -0.524797 -2.232090 -28.034108 7.336293 68.887485 -27.841501 -0.000007 -0.000000 -0.084042 104.915613 0.090110 -28.328789 0.000005 0.000003 41.433990 -2.273621 -19.031999 -8.076713 -0.486739 -3.806224 -8.452923 3.418892 31.277837 -3.600003 -0.000004 -0.000003 -2.208770 9.107039 38.970932 -2.114200 -0.000016 0.000005 0.000001 -0.000003 0.000001 -1.975719 0.000002 -0.000001 0.000003 -0.000000 0.000001 -9.103607 -0.043048 -1.865125 -12.276346 -5.396037 26.317697 -3.153980 0.000001 0.000000 -1.285427 4.262664 37.673814 -2.937688 -0.000005 0.000000 -0.000004 0.000002 0.000002 -2.647489 0.000013 0.000005 -0.000001 0.000002 0.000002 -9.532519 0.000001 0.000001 -5.430588 -1.736450 19.845463 -3.698179 0.000009 0.000002 -0.834708 1.779188 39.951617 -2.950886 -0.000028 0.000004 0.000001 -0.000002 -0.000002 -2.833899 -0.000030 0.000002 0.000000 0.000001 -0.000001 -9.108311 -0.517841 2.259859 -5.805823 -3.360549 3.090631 -3.676389 -0.000012 -0.000007 0.531101 -1.826961 38.552747 -2.883104 -0.000031 0.000002 -0.000003 -0.000003 -0.000002 -2.392693 -0.000016 0.000002 -0.000001 0.000001 0.000000 -2.464797 -1.573948 2.681867 14.775209 10.238340 -2.146612 -3.229793 -1.864691 1.864715 -1.195619 -0.201515 -2.185526 -2.652537 -1.531449 1.531443 -0.000013 0.000007 0.000004 -1.954606 -1.128492 1.128494 -0.000001 -0.000001 0.000001 8.207795 -6.751709 -1.599602 -58.761156 -8.438359 25.671109 -0.000000 -44.370495 0.284601 134.841513 -5.883934 -2.572242 -0.000001 -44.427898 -2.982197 -7.281896 -16.760149 7.666902 -0.000001 -8.728701 10.710606 6.438864 4.620227 3.018796 -0.000001 -0.000700 9.278102 0.000000 0.000001 -0.000001 -8.207800 -6.751711 -1.599601 -13.197375 -4.473248 16.156988 -0.000001 -44.370495 0.286201 54.194635 -0.977601 1.544595 0.000001 -44.427700 -2.983802 -16.242893 10.935991 -5.686090 0.000001 -8.728703 10.710594 -38.289156 1.428499 -1.831651 0.000000 -0.000700 9.278102 -0.000000 0.000000 -0.000000 
